C:\Users\r0593348\3dpredictsim\Results\Batchsim_tmt_linear\Pog_s1_tmt_aCst_d00_k1000_ig24_act_GRF.mot
nRows=27
nColumns=19

name C:\Users\r0593348\3dpredictsim\Results\Batchsim_tmt_linear\Pog_s1_tmt_aCst_d00_k1000_ig24_act_GRF.mot
datacolumns 19
datarows 27
range 0.6312881670 0.9595580139
endheader
time 	ground_force_vx	ground_force_vy	ground_force_vz	ground_force_px	ground_force_py	ground_force_pz	1_ground_force_vx	1_ground_force_vy	1_ground_force_vz	1_ground_force_px	1_ground_force_py	1_ground_force_pz	ground_torque_x	ground_torque_y	ground_torque_z	1_ground_torque_x	1_ground_torque_y	1_ground_torque_z
        0.6312881670	      108.1514485499	      427.7155790403	        0.5941035308	        0.4235424111	        0.0000000000	        0.0334046651	      -37.2504950420	       29.1016162113	       -8.9139993308	        0.9911585039	        0.0000000000	       -0.0515439368	        0.0000000000	        0.0000000000	        0.0000000000	        0.0000000000	        0.0000000000	        0.0000000000	
        0.6439139304	       73.0531052568	      325.9663177319	        6.7522741668	        0.4315830336	        0.0000000000	        0.0302938233	     -113.7105129267	      116.1190040471	      -39.9285360405	        0.9993645663	        0.0000000000	       -0.0496485051	        0.0000000000	        0.0000000000	        0.0000000000	        0.0000000000	        0.0000000000	        0.0000000000	
        0.6565396937	       40.6275410147	      221.4731096149	       12.7639818979	        0.4449076656	        0.0000000000	        0.0246063873	      -58.6830375094	      313.2761371861	      -13.0798697664	        1.0048393201	        0.0000000000	       -0.0477908872	        0.0000000000	        0.0000000000	        0.0000000000	        0.0000000000	        0.0000000000	        0.0000000000	
        0.6691654570	       26.9663692682	      174.2886498106	       12.6289384571	        0.4499920661	        0.0000000000	        0.0220543010	      -61.5034696777	      530.5404300052	        6.7158060747	        1.0078323627	        0.0000000000	       -0.0476365790	        0.0000000000	        0.0000000000	        0.0000000000	        0.0000000000	        0.0000000000	        0.0000000000	
        0.6817912204	       21.5102675380	      127.1100475743	       15.4350726906	        0.4503932885	        0.0000000000	        0.0223797864	     -111.5745098178	      748.0301339939	       15.3048635210	        1.0163962994	        0.0000000000	       -0.0495495032	        0.0000000000	        0.0000000000	        0.0000000000	        0.0000000000	        0.0000000000	        0.0000000000	
        0.6944169837	        8.7087359096	       70.4761029985	       15.1701296433	        0.4504401615	        0.0000000000	        0.0228301729	     -147.3950728318	      890.3084727000	       20.5340908864	        1.0247395003	        0.0000000000	       -0.0514731421	        0.0000000000	        0.0000000000	        0.0000000000	        0.0000000000	        0.0000000000	        0.0000000000	
        0.7070427471	       -6.0516878806	       12.0539344033	        3.5269832666	        0.4470086285	        0.0000000000	        0.0226723209	     -152.7725128168	      915.1286629877	       21.1672174700	        1.0300978844	        0.0000000000	       -0.0525446131	        0.0000000000	        0.0000000000	        0.0000000000	        0.0000000000	        0.0000000000	        0.0000000000	
        0.7196685104	        0.0277681023	       -0.0233968425	        0.0007767785	        0.0000000000	        0.0000000000	        0.0000000000	     -137.9465784970	      878.2754425093	       20.3372363826	        1.0340244897	        0.0000000000	       -0.0531511004	        0.0000000000	        0.0000000000	        0.0000000000	        0.0000000000	        0.0000000000	        0.0000000000	
        0.7322942737	        0.2979032012	       -0.2124145432	        0.0176088831	        0.0000000000	        0.0000000000	        0.0000000000	     -119.3170609608	      818.6688068047	       19.3934639453	        1.0377519110	        0.0000000000	       -0.0534437139	        0.0000000000	        0.0000000000	        0.0000000000	        0.0000000000	        0.0000000000	        0.0000000000	
        0.7449200371	       -2.0633073962	        1.2949228724	       -0.1500215279	        0.0000000000	        0.0000000000	        0.0000000000	     -105.3571386155	      767.6548669157	       17.9123661580	        1.0416671607	        0.0000000000	       -0.0534767395	        0.0000000000	        0.0000000000	        0.0000000000	        0.0000000000	        0.0000000000	        0.0000000000	
        0.7575458004	       -1.8568546548	        1.0639566167	       -0.1426395048	        0.0000000000	        0.0000000000	        0.0000000000	      -93.3352373407	      732.2522714612	       17.6068094202	        1.0460431530	        0.0000000000	       -0.0533136821	        0.0000000000	        0.0000000000	        0.0000000000	        0.0000000000	        0.0000000000	        0.0000000000	
        0.7701715638	       -1.4806836915	        0.7922900604	       -0.1163739598	        0.0000000000	        0.0000000000	        0.0000000000	      -83.4668023259	      706.6428982360	       18.0837365385	        1.0512338870	        0.0000000000	       -0.0529061102	        0.0000000000	        0.0000000000	        0.0000000000	        0.0000000000	        0.0000000000	        0.0000000000	
        0.7827973271	       -1.0080545506	        0.5138773384	       -0.0765710978	        0.0000000000	        0.0000000000	        0.0000000000	      -73.6047508355	      682.4138163759	       18.8224360058	        1.0563957324	        0.0000000000	       -0.0524907412	        0.0000000000	        0.0000000000	        0.0000000000	        0.0000000000	        0.0000000000	        0.0000000000	
        0.7954230904	       -0.7110981856	        0.3483018339	       -0.0534921234	        0.0000000000	        0.0000000000	        0.0000000000	      -63.7939957292	      658.6907233497	       19.6553186146	        1.0611826570	        0.0000000000	       -0.0521889547	        0.0000000000	        0.0000000000	        0.0000000000	        0.0000000000	        0.0000000000	        0.0000000000	
        0.8080488538	       -0.5572568974	        0.2640196907	       -0.0417485566	        0.0000000000	        0.0000000000	        0.0000000000	      -54.7232722298	      637.9330439800	       20.1113094030	        1.0658554549	        0.0000000000	       -0.0519771886	        0.0000000000	        0.0000000000	        0.0000000000	        0.0000000000	        0.0000000000	        0.0000000000	
        0.8206746171	       -0.4882862415	        0.2249922101	       -0.0364538873	        0.0000000000	        0.0000000000	        0.0000000000	      -46.8869794089	      620.9738825556	       20.5194906993	        1.0706084632	        0.0000000000	       -0.0518000785	        0.0000000000	        0.0000000000	        0.0000000000	        0.0000000000	        0.0000000000	        0.0000000000	
        0.8333003805	       -0.4699067031	        0.2115264328	       -0.0347978575	        0.0000000000	        0.0000000000	        0.0000000000	      -40.0096110310	      607.0310562142	       20.5520567818	        1.0754180315	        0.0000000000	       -0.0516336330	        0.0000000000	        0.0000000000	        0.0000000000	        0.0000000000	        0.0000000000	        0.0000000000	
        0.8459261438	       -0.4895632176	        0.2158910242	       -0.0357439063	        0.0000000000	        0.0000000000	        0.0000000000	      -33.8231354763	      596.8296106495	       20.4822713547	        1.0805532962	        0.0000000000	       -0.0514243057	        0.0000000000	        0.0000000000	        0.0000000000	        0.0000000000	        0.0000000000	        0.0000000000	
        0.8585519071	       -0.5548244311	        0.2399417116	       -0.0398856545	        0.0000000000	        0.0000000000	        0.0000000000	      -28.8757798751	      590.3667847821	       20.0883772526	        1.0861876991	        0.0000000000	       -0.0511289496	        0.0000000000	        0.0000000000	        0.0000000000	        0.0000000000	        0.0000000000	        0.0000000000	
        0.8711776705	       -0.6726791198	        0.2855323052	       -0.0470970207	        0.0000000000	        0.0000000000	        0.0000000000	      -24.9909812416	      586.7516199680	       19.4640483609	        1.0922700512	        0.0000000000	       -0.0507304002	        0.0000000000	        0.0000000000	        0.0000000000	        0.0000000000	        0.0000000000	        0.0000000000	
        0.8838034338	       -0.8462181485	        0.3530578142	       -0.0571252825	        0.0000000000	        0.0000000000	        0.0000000000	      -21.5899139353	      585.2316782879	       18.9361633672	        1.0986978342	        0.0000000000	       -0.0502283470	        0.0000000000	        0.0000000000	        0.0000000000	        0.0000000000	        0.0000000000	        0.0000000000	
        0.8964291972	       -1.0664331884	        0.4381391646	       -0.0689126595	        0.0000000000	        0.0000000000	        0.0000000000	      -18.6205717563	      584.8820722330	       18.4997472934	        1.1053161129	        0.0000000000	       -0.0496464783	        0.0000000000	        0.0000000000	        0.0000000000	        0.0000000000	        0.0000000000	        0.0000000000	
        0.9090549605	       -1.3081230382	        0.5302988540	       -0.0809280057	        0.0000000000	        0.0000000000	        0.0000000000	      -15.8140388154	      584.0369430487	       18.5814579744	        1.1119078883	        0.0000000000	       -0.0490236287	        0.0000000000	        0.0000000000	        0.0000000000	        0.0000000000	        0.0000000000	        0.0000000000	
        0.9216807238	       -1.5329192338	        0.6144219647	       -0.0909808287	        0.0000000000	        0.0000000000	        0.0000000000	      -13.0058054547	      581.8660910573	       18.7647851218	        1.1184096901	        0.0000000000	       -0.0483837444	        0.0000000000	        0.0000000000	        0.0000000000	        0.0000000000	        0.0000000000	        0.0000000000	
        0.9343064872	       -1.6986905694	        0.6745330550	       -0.0967831961	        0.0000000000	        0.0000000000	        0.0000000000	      -10.0841341078	      578.5121206389	       18.7349407933	        1.1247984819	        0.0000000000	       -0.0477371825	        0.0000000000	        0.0000000000	        0.0000000000	        0.0000000000	        0.0000000000	        0.0000000000	
        0.9469322505	       -1.7822248390	        0.7023036385	       -0.0966739075	        0.0000000000	        0.0000000000	        0.0000000000	       -6.9372393307	      574.1902049286	       18.4265392208	        1.1310607850	        0.0000000000	       -0.0470861168	        0.0000000000	        0.0000000000	        0.0000000000	        0.0000000000	        0.0000000000	        0.0000000000	
        0.9595580139	       -1.7983037169	        0.7038478761	       -0.0908410640	        0.0000000000	        0.0000000000	        0.0000000000	       -3.4480491346	      568.6898989181	       17.3015849510	        1.1371969723	        0.0000000000	       -0.0464340044	        0.0000000000	        0.0000000000	        0.0000000000	        0.0000000000	        0.0000000000	        0.0000000000	
